<svg width="11" height="15" viewBox="0 0 11 15" fill="none" xmlns="http://www.w3.org/2000/svg"><path fill-rule="evenodd" clip-rule="evenodd" d="M5.49944 3.59375c-1.08507 0-1.96428.8932-1.96428 1.99553 0 1.10234.87921 1.99554 1.96428 1.99554s1.96429-.8932 1.96429-1.99554c0-1.10233-.87922-1.99553-1.96429-1.99553zm.00081.8001c.64979 0 1.17857.5372 1.17857 1.19732 0 .66012-.52878 1.19732-1.17857 1.19732-.64978 0-1.17857-.5372-1.17857-1.19732 0-.66012.52879-1.19732 1.17857-1.19732z" fill="#333"/><path fill-rule="evenodd" clip-rule="evenodd" d="M.78633 5.60804c0-2.6405 2.11514-4.78929 4.71428-4.78929 2.59915 0 4.71429 2.14879 4.71429 4.78929 0 2.64049-2.11514 4.78926-4.71429 4.78926-2.59914 0-4.71428-2.14877-4.71428-4.78926zM11 5.60703c0-3.0859-2.46243-5.5875-5.5-5.5875S0 2.52113 0 5.60703c0 2.95179 2.25264 5.36877 5.10714 5.57317v2.4257h-2.75v.7982h6.28572v-.7982h-2.75v-2.4257C8.74736 10.9758 11 8.55882 11 5.60703z" fill="#333"/></svg>